<svg xmlns="http://www.w3.org/2000/svg" width="500" height="500" viewBox="0 0 500 500" version="1.1"><title>gallery</title><g id="gallery" stroke="none" stroke-width="1" fill="none" fill-rule="evenodd"><g id="A5" fill="#4A4A4A"><g id="images" transform="translate(4.000000, 16.000000)"><g id="Images"><path d="M420.56 151.51L370.43 13.45C366.74 3.26 355.86-2.15 346.2 1.4L13.05 122.99C3.4 126.52-1.47 137.62 2.25 147.81L55.07 293.36 55.07 215.38C55.07 180.15 83.2 151.51 117.79 151.51L205.82 151.51 310.8 77.81 371.54 151.51 420.56 151.51 420.56 151.51ZM472.33 196.34L117.79 196.34C107.5 196.34 99.12 204.53 99.12 215.38L99.12 446.17C99.15 457.05 107.53 465.84 117.79 465.84L472.33 465.84C482.62 465.84 491 457.05 491 446.17L491 215.38C491 204.53 482.62 196.34 472.33 196.34L472.33 196.34ZM442 416.84L148 416.84 148 367.84 196.61 269.4 264.42 353.59 328.07 288.37 409.86 258.84 442 343.34 442 416.84 442 416.84Z" id="Shape"/></g></g></g></g></svg>